<?xml version="1.0" encoding="UTF-8"?>
<svg id="GENIQS" xmlns="http://www.w3.org/2000/svg" viewBox="0 0 1920 1080">
  <defs>
    <style>
      .cls-1 {
        fill: #063f47;
      }

      .cls-2 {
        fill: #69aaaf;
      }
    </style>
  </defs>
  <path class="cls-1" d="M422.16,930.52v-36.05s2.74-3.62,2.74-3.62c2.91-5.49,9.88-9,16.67-9.35,17.41-.9,34.58-.98,51.84-.03,8.76.48,15.71,6.2,15.9,14.64l-58.71.31c-4.41.02-7.21,3.48-7.21,7.32v17.53c-.02,4.49,3.11,7.59,7.85,7.59h30.77c1.87.01,5.13-1.17,5.86-2.57.65-1.24.89-4.1,1.04-6.6l-20.54-.04-8-13.66,49.33-.31-.07,22.09c-.05,15.34-17.2,16.71-32.43,16.49l-34.83-.52c-6.97-.1-13.74-3.26-17.28-8.94l-2.92-4.28Z"/>
  <g>
    <path class="cls-1" d="M667.29,654.59c96.57,56.76,192.19,112.18,286.83,171.05l-297.02-164-.03-386.33,305.63-170.03c-3.73,3.89-8.47,6.12-13.61,9.02l-281.74,167.57-.06,372.72Z"/>
    <path class="cls-1" d="M1049.05,110.67l-4.47-3.23,5.29,2.15.5.5,296.95,165.26.05,386.29-31.26,17.49-262.57,144.51c93.66-58.24,188.32-113.14,283.8-169.14l-.22-53.96-.03-318.66-287.41-170.88-.62-.33Z"/>
    <polygon class="cls-1" points="1003.07 624.29 1001.85 643.34 1001.14 623.74 996.63 486.51 1007.69 486.73 1003.07 624.29"/>
    <g>
      <path class="cls-1" d="M1145.25,417.04c12.96-10.18,29.85-7.76,39.89,3.92,9.72,11.31,21.83,31.82,12.02,42.44-4.18,4.52-10.94,6.45-16.96,6.13-7.22-.39-11.62,2.32-16.37,6.97-10.51,10.3-22.37,18.66-34.31,27.33-10.53,7.64-26.73,19.79-21.56,29.62,1.77,3.38,6.6,8.58,11.16,6.62l38.71-16.59c17.16-7.36,33.1-15.06,49.64-23.61s27.15-25.06,24.96-45.11l-5.16-33.54c-3.57-23.21-5.63-45.87-3.86-69.52,1.38-18.52,11.88-35.32,27.34-45.11,6.47-4.1,15.74,1.58,16.54,8.87l3.94,35.88,11.49,63.67c3.36,18.6,5.66,36.66,6.9,55.5,1.42,21.66-2.71,42.77-11.41,62.19-8.04,17.93-21.22,30.14-38.31,39.17l-80.77,42.67-72.07,34.98c-13.82,6.71-34.96,6.85-46.72-3.91-8.86-8.1-17.3-19.31-18.86-31.92-3.94-31.95-1.88-63.62,4-95.07,4.64-24.86,20.51-43.92,43.22-54.44,27.58-12.76,52.46-28.22,76.54-47.13Z"/>
      <path class="cls-1" d="M819.05,420.76c10.16-11.8,27-13.5,39.39-3.98,19.11,14.68,38.52,27.94,60.19,38.98l21.77,11.1c20,10.19,33.6,28.52,37.95,50.89,6.13,31.53,8.21,63.25,4.36,95.41-1.83,15.33-12.88,29.1-25.38,36.81-7.95,4.9-17.47,4.61-26.12,3.53-9.08-1.14-16.64-5.01-24.76-9.04l-82.53-40.96-61.62-32.83c-16.93-9.02-29.24-21.81-37.05-39.54-8.24-18.72-11.97-38.87-10.81-59.78,1.58-28.58,6.49-55.69,12.09-83.66,4.84-24.18,8.22-47.45,10.09-71.93.27-3.57,3.42-7.06,5.7-8.52,3.33-2.13,8.07-2.9,11.65-.46,14.99,10.26,25.51,26.82,26.79,45.29,1.68,24.34-.71,47.91-4.32,71.92l-4.66,30.96c-2.37,15.75,4.46,32.07,18.17,40.58,20.14,12.51,41.37,21.19,63.04,30.63l31.7,13.82c4.6,2,9.33-2.47,11.12-5.75,5.96-10.93-11.15-23.21-22.97-31.78-11.6-8.41-22.97-16.59-33.25-26.5-4.36-4.2-8.3-6.76-14.92-6.46-6.34.29-13.41-1.44-17.77-6.29-9.53-10.61,2.17-30.87,12.16-42.46Z"/>
      <path class="cls-1" d="M1030.85,469.23c-18.83,1.37-36.22.97-54.54.43-11.13-.33-20.71-8.59-20.67-19.92l.12-28.96c.04-9.34,7.91-18.7,17.67-18.73l56.09-.15c10.47-.03,18.92,9.1,18.93,19.44l.04,28.76c.01,9.37-7.61,18.4-17.63,19.12Z"/>
    </g>
  </g>
  <path class="cls-2" d="M1471.08,944.16l-21.35.06-.22-38.07-26.82,37.69-7.96.37-27.2-38.21-.33,38.15-21.35-.02v-63.13s18.41.04,18.41.04c5.74,1.1,11.61,3.22,15.23,8.07l19.27,25.93,17.76-24.09c4.41-5.98,10.25-9.87,18.04-9.94l16.51-.04.03,63.19Z"/>
  <path class="cls-1" d="M835.66,938.57c-5.22,3.66-10.89,5.43-17.09,5.48l-34.39.27c-14.52.11-29.47-4.99-29.46-18.67l.03-26.23c.01-11.97,12.46-18.29,25.19-18.3l38.66-.02c11.92,0,24.24,6.4,24.36,17.98l.27,24.91,9.01,5.35-7.93,14.18-8.65-4.95ZM803,920.69l7.41-13.21,11.4,6.09v-9.83c.02-3.92-3.34-7.11-7.46-7.12l-30.53-.07c-4.42,0-7.94,3.11-7.93,7.47l.02,17.94c0,3.66,4.02,6.73,7.64,6.69l31.13-.35-11.68-7.59Z"/>
  <path class="cls-2" d="M1328.6,932.85c-.05-4.27-3.39-7.12-7.5-7.11l-27.03.06-8.44-14.84,39.31-.29c4.72-2.91,4.85-10.7.57-14.56l-41.5-.3v48.41s-21.58,0-21.58,0l-.02-63.3,70.28.2c9.66.03,16.76,6.28,17.94,15.28l-.14,12.88c-.03,3.06-3.13,6.65-5.42,8.76,3.46,3.62,5.46,7.92,5.39,12.74l-.19,13.44-21.53.06-.14-11.44Z"/>
  <path class="cls-1" d="M704.65,944.05l-19.62-.18c-5.51-.05-10.65-4.48-14.67-8.18l-35.24-32.48-.15,40.92-21.66.17v-63.43s19.27.78,19.27.78c7.92.32,13.74,5.64,19.25,10.66l31.17,28.38.25-39.79,21.4.09v63.04Z"/>
  <path class="cls-1" d="M917.85,944.08l-33.28.11c-11.08.04-25.73-4.36-26.09-15.28l53.2-.08c2.01,0,4.18-1.8,4.57-3.48.37-1.57-1.87-4.87-3.8-4.99l-23.78-1.49c-15.8-.99-29.59-3.16-29.58-18.9,0-7.4,3.12-13.64,10.49-16.2,4.22-1.46,9.58-2.76,14.26-2.76h31.49c11.42,0,22.92,4,22.61,15.05l-52.42.04c-1.59,0-3.63,2.17-3.75,3.46-.16,1.67,1.88,4.21,3.86,4.34l28.02,1.81,13.03,2.24c7.86,1.35,12.38,8.17,12.45,16.17.04,5.03-.52,10.72-4.69,14.19-4.2,3.51-10.57,5.73-16.62,5.76Z"/>
  <path class="cls-2" d="M975.89,911.32l35.65-.28c4.38-.03,7.15-3.78,6.28-8.29.4-2.49-1.81-6.75-4.73-6.76l-39.01-.18v48.35s-21.49.12-21.49.12l-.05-63.37,66.62.18c6.96.02,13.29,2.7,17.77,7.51,2.95,6.15,2.97,12.37,2.98,19.11.02,10.22-6.48,18.29-17.4,18.39l-38.37.36-8.24-15.13Z"/>
  <path class="cls-2" d="M1550.14,934.67l-21.85.09-8.38-13.31-12.69,23.02-23.49-.07,34.57-63.33,14.56.16c6.6.07,12.63,3.68,15.83,9.35l30.41,53.85-23.47.2-5.5-9.96ZM1541.14,919.89l-10.24-17.79-10.17,17.92,20.41-.13Z"/>
  <path class="cls-2" d="M1219.73,934.7l-21.49.02-8.37-13.36-12.7,23.09-23.53-.05,34.61-63.25,16.05.2c6.54.08,11.49,4.34,14.57,9.86l29.8,53.26-23.41.18-5.52-9.95ZM1211.08,919.9l-10.3-17.79-10.17,17.93,20.47-.14Z"/>
  <path class="cls-1" d="M599.04,928.92l.29,15.34-61.62-.3c-7.25-.04-15.05-5.88-15.12-12.94l-.33-33.07c-.09-9.28,6.51-16.71,16.53-16.76l59.58-.27.03,15.11-54.47.13v32.7s55.1.05,55.1.05Z"/>
  <polygon class="cls-2" points="1119.62 919.77 1085.25 919.68 1076.35 904.77 1119.54 904.74 1119.63 880.97 1140.98 880.95 1141.03 944.13 1119.61 944.26 1119.62 919.77"/>
  <rect class="cls-2" x="1053.82" y="880.91" width="21.83" height="63.4"/>
  <rect class="cls-1" x="698.92" y="901.84" width="63.43" height="21.56" transform="translate(-182.186 1642.9982) rotate(-89.9842)"/>
  <polygon class="cls-1" points="594.77 919.59 553.48 919.61 545.08 905.26 587.26 905.16 594.77 919.59"/>
</svg>